<svg height="464pt" viewBox="-64 0 464 464" width="464pt" xmlns="http://www.w3.org/2000/svg"><path d="m288.390625 464 17.730469-168.480469c-2.167969.277344-4.347656.4375-6.527344.480469-18.851562 0-22.554688-17.761719-25.265625-30.71875-.804687-4.394531-1.910156-8.726562-3.3125-12.96875-1.195313-3.609375-4.941406-5.71875-8.648437-4.863281-3.9375.550781-6.847657 3.957031-6.773438 7.933593v54.441407c.523438 38.515625-28.863281 70.859375-67.25 74.023437-1.601562.105469-3.199219.160156-4.800781.160156-18.289063.054688-35.898438-6.917968-49.191407-19.480468-14.496093-13.628906-22.726562-32.632813-22.757812-52.527344v-3.601562c.058594-2.273438-1.027344-4.421876-2.898438-5.71875-2.316406-1.550782-5.238281-1.894532-7.855468-.925782-5.492188 1.925782-11.339844 2.632813-17.136719 2.0625-20.777344-2.511718-36.335937-20.257812-36.109375-41.183594v-86.632812h-31.121094l30.320313 288zm0 0"/><path d="m318.703125 176h-255.109375v86.632812c-.277344 12.6875 9.019531 23.558594 21.597656 25.253907 3.515625.347656 7.066406-.074219 10.402344-1.238281 2.691406-.941407 5.523438-1.425782 8.375-1.433594 5.015625-.027344 9.914062 1.507812 14.023438 4.386718 6.09375 4.304688 9.683593 11.335938 9.601562 18.796876v3.601562c-.003906 15.5 6.417969 30.304688 17.738281 40.894531 11.316407 10.589844 26.515625 16.015625 41.980469 14.984375 29.976562-2.605468 52.816406-27.972656 52.28125-58.054687v-54.398438c-.101562-11.753906 8.394531-21.816406 20-23.691406 11.355469-2.300781 22.667969 4.15625 26.460938 15.105469 1.6875 4.964844 3.011718 10.042968 3.960937 15.199218 3.03125 14.601563 4.824219 17.960938 9.578125 17.960938 2.757812.003906 5.515625-.246094 8.230469-.742188zm0 0"/><path d="m167.59375 0c-89.578125.148438-163.296875 70.527344-167.59375 160h16c4.066406-80.761719 70.734375-144.160156 151.601562-144.160156 80.863282 0 147.53125 63.398437 151.597657 144.160156h16c-4.296875-89.480469-78.023438-159.859375-167.605469-160zm0 0"/></svg>